<svg xml:space="preserve" style="enable-background:new 0 0 1024 1024;" viewBox="0 0 1024 1024" y="0px" x="0px" xmlns:xlink="http://www.w3.org/1999/xlink" xmlns="http://www.w3.org/2000/svg" id="图层_1" version="1.1">
<g>
	<g>
		<path d="M339,935.7H165.6c-42.7,0-77.2-34.6-77.2-77.2V165.6c0-42.7,34.6-77.2,77.2-77.2H339c21.1,0,38.2-17.1,38.2-38.2v0
			c0-21.1-17.1-38.2-38.2-38.2H165.6C80.8,12,12,80.8,12,165.6v692.8c0,84.8,68.8,153.6,153.6,153.6H339c21.1,0,38.2-17.1,38.2-38.2
			v0C377.2,952.7,360.1,935.7,339,935.7z"></path>
		<path d="M858.4,12H685c-21.1,0-38.2,17.1-38.2,38.2v0c0,21.1,17.1,38.2,38.2,38.2h173.4c42.7,0,77.2,34.6,77.2,77.2v692.8
			c0,42.7-34.6,77.3-77.3,77.3H685c-21.1,0-38.2,17.1-38.2,38.2v0c0,21.1,17.1,38.2,38.2,38.2h173.4c84.8,0,153.6-68.8,153.6-153.6
			V165.6C1012,80.8,943.2,12,858.4,12z"></path>
		<path d="M511.8,14.3L511.8,14.3c21.1,0,38.2,17.1,38.2,38.2v140.6c0,21.1-17.1,38.2-38.2,38.2h0c-21.1,0-38.2-17.1-38.2-38.2V52.5
			C473.7,31.4,490.7,14.3,511.8,14.3z"></path>
		<path d="M511.8,274.6L511.8,274.6c21.1,0,38.2,17.1,38.2,38.2v140.6c0,21.1-17.1,38.2-38.2,38.2h0c-21.1,0-38.2-17.1-38.2-38.2
			V312.7C473.7,291.7,490.7,274.6,511.8,274.6z"></path>
		<path d="M511.8,534.8L511.8,534.8c21.1,0,38.2,17.1,38.2,38.2v140.6c0,21.1-17.1,38.2-38.2,38.2h0c-21.1,0-38.2-17.1-38.2-38.2
			V573C473.7,551.9,490.7,534.8,511.8,534.8z"></path>
		<path d="M511.8,795L511.8,795c21.1,0,38.2,17.1,38.2,38.2v140.6c0,21.1-17.1,38.2-38.2,38.2h0c-21.1,0-38.2-17.1-38.2-38.2V833.2
			C473.7,812.1,490.7,795,511.8,795z"></path>
	</g>
</g>
</svg>
