<svg xml:space="preserve" style="enable-background:new 0 0 1024 1024;" viewBox="0 0 1024 1024" y="0px" x="0px" xmlns:xlink="http://www.w3.org/1999/xlink" xmlns="http://www.w3.org/2000/svg" id="图层_1" version="1.1">
<g>
	<g>
		<g>
			<path d="M339.8,492.3H166.7c-84.7,0-153.6-68.9-153.6-153.6V165.6C13.1,80.9,82,12,166.7,12h173.1c84.7,0,153.6,68.9,153.6,153.6
				v173.1C493.4,423.4,424.5,492.3,339.8,492.3z M166.7,88.3c-42.6,0-77.3,34.7-77.3,77.3v173.1c0,42.6,34.7,77.2,77.3,77.2h173.1
				c42.6,0,77.2-34.7,77.2-77.2V165.6c0-42.6-34.7-77.3-77.2-77.3H166.7z"></path>
		</g>
		<g>
			<path d="M857.3,492.3H684.2c-84.7,0-153.6-68.9-153.6-153.6V165.6C530.6,80.9,599.5,12,684.2,12h173.1
				c84.7,0,153.6,68.9,153.6,153.6v173.1C1010.9,423.4,942,492.3,857.3,492.3z M684.2,88.3c-42.6,0-77.3,34.7-77.3,77.3v173.1
				c0,42.6,34.7,77.2,77.3,77.2h173.1c42.6,0,77.2-34.7,77.2-77.2V165.6c0-42.6-34.7-77.3-77.2-77.3H684.2z"></path>
		</g>
		<g>
			<path d="M339.8,1012H166.7C82,1012,13.1,943.1,13.1,858.4V685.3c0-84.7,68.9-153.6,153.6-153.6h173.1
				c84.7,0,153.6,68.9,153.6,153.6v173.1C493.4,943.1,424.5,1012,339.8,1012z M166.7,608c-42.6,0-77.3,34.7-77.3,77.2v173.1
				c0,42.6,34.7,77.3,77.3,77.3h173.1c42.6,0,77.2-34.7,77.2-77.3V685.3c0-42.6-34.7-77.2-77.2-77.2H166.7z"></path>
		</g>
		<g>
			<path d="M770.7,1012c-132.4,0-240.2-107.7-240.2-240.2c0-132.4,107.7-240.2,240.2-240.2c132.4,0,240.2,107.7,240.2,240.2
				C1010.9,904.3,903.2,1012,770.7,1012z M770.7,608c-90.3,0-163.8,73.5-163.8,163.8s73.5,163.8,163.8,163.8s163.8-73.5,163.8-163.8
				S861.1,608,770.7,608z"></path>
		</g>
	</g>
</g>
</svg>
